<svg xmlns="http://www.w3.org/2000/svg" viewBox="0 0 240 360">
  <g fill="#111926" stroke="#3b4658" stroke-width="8" stroke-linejoin="round" stroke-linecap="round">
    <path d="M89 184 Q104 190 120 190 L116 324 Q114 344 100 345 Q87 344 88 326 L79 204 Z"/>
    <path d="M120 190 Q136 190 151 184 L161 204 L152 326 Q153 344 140 345 Q126 344 124 324 Z"/>
    <path d="M88 86 L62 90 Q55 92 53 100 L38 164 Q36 174 44 180 Q53 183 58 172 L77 116 L91 112 Z"/>
    <path d="M152 86 L178 90 Q185 92 187 100 L202 164 Q204 174 196 180 Q187 183 182 172 L163 116 L149 112 Z"/>
    <path d="M90 76 Q120 67 150 76 L160 102 L151 190 Q120 201 89 190 L80 102 Z"/>
    <circle cx="120" cy="42" r="24"/>
  </g>
</svg>
